<svg width="18" height="16" viewBox="0 0 18 16" fill="none" xmlns="http://www.w3.org/2000/svg">
    <path d="M0 2.28571C0 1.025 1.00898 0 2.25 0H15.75C16.991 0 18 1.025 18 2.28571V13.7143C18 14.975 16.991 16 15.75 16H2.25C1.00898 16 0 14.975 0 13.7143V2.28571ZM11.3836 6.08929C11.2254 5.85357 10.9652 5.71429 10.6875 5.71429C10.4098 5.71429 10.1461 5.85357 9.99141 6.08929L6.93281 10.6464L6.00117 9.46429C5.83945 9.26071 5.59688 9.14286 5.34375 9.14286C5.09062 9.14286 4.84453 9.26071 4.68633 9.46429L2.43633 12.3214C2.23242 12.5786 2.19375 12.9321 2.33438 13.2286C2.475 13.525 2.77031 13.7143 3.09375 13.7143H6.46875H7.59375H14.9062C15.2191 13.7143 15.5074 13.5393 15.6516 13.2571C15.7957 12.975 15.7781 12.6357 15.6023 12.375L11.3836 6.08929ZM3.9375 5.71429C4.38505 5.71429 4.81428 5.53367 5.13074 5.21218C5.44721 4.89069 5.625 4.45466 5.625 4C5.625 3.54534 5.44721 3.10931 5.13074 2.78782C4.81428 2.46633 4.38505 2.28571 3.9375 2.28571C3.48995 2.28571 3.06072 2.46633 2.74426 2.78782C2.42779 3.10931 2.25 3.54534 2.25 4C2.25 4.45466 2.42779 4.89069 2.74426 5.21218C3.06072 5.53367 3.48995 5.71429 3.9375 5.71429Z"
          fill="currentColor"/>
</svg>
