<svg width="18" height="18" viewBox="0 0 18 18" fill="none" xmlns="http://www.w3.org/2000/svg">
    <path d="M16.8091 0.0225847C16.7413 0.0225847 16.7187 0.0677541 16.6734 0.0903388L8.18965 6.09787C8.09916 6.16562 7.96342 6.3463 7.89555 6.45922L7.60144 7.02384C9.23032 7.54329 10.4746 8.78545 10.9949 10.4115L11.5605 10.1179C11.6736 10.0502 11.832 9.93726 11.9225 9.82434L17.9403 1.35508C18.0082 1.24216 18.0308 1.15182 17.9403 1.06148L16.9449 0.0677541C16.8996 0.0225847 16.8544 0 16.8091 0V0.0225847ZM5.99519 8.98871C4.32106 8.98871 3.03153 10.3664 3.03153 12.0151C3.03153 14.2509 1.78724 16.1932 0 17.2321C0.88231 17.729 1.94561 18 3.03153 18C6.35716 18 9.04934 15.335 9.04934 11.9925C9.04934 10.3212 7.66931 8.96612 6.01781 8.96612L5.99519 8.98871Z"
          fill="currentColor"/>
</svg>
