<svg width="28" height="26" viewBox="0 0 28 26" fill="none" xmlns="http://www.w3.org/2000/svg">
    <path d="M27.1713 4.44026C28.2646 3.42511 28.2646 1.77651 27.1713 0.761362C26.0781 -0.253787 24.3027 -0.253787 23.2094 0.761362L14 9.3211L4.78182 0.769483C3.68858 -0.245666 1.91317 -0.245666 0.819928 0.769483C-0.273309 1.78463 -0.273309 3.43323 0.819928 4.44838L10.0381 13L0.828674 21.5597C-0.264563 22.5749 -0.264563 24.2235 0.828674 25.2386C1.92191 26.2538 3.69733 26.2538 4.79057 25.2386L14 16.6789L23.2182 25.2305C24.3114 26.2457 26.0868 26.2457 27.1801 25.2305C28.2733 24.2154 28.2733 22.5668 27.1801 21.5516L17.9619 13L27.1713 4.44026Z"
          fill="currentColor"/>
</svg>
