<svg width="21" height="19" viewBox="0 0 21 19" fill="none" xmlns="http://www.w3.org/2000/svg">
<path d="M20.0661 10.3377C20.5652 9.81368 20.5652 8.96269 20.0661 8.43867L14.9558 3.0728C14.4567 2.54879 13.6462 2.54879 13.1472 3.0728C12.6481 3.59681 12.6481 4.44781 13.1472 4.97182L16.0777 8.04881H7.66553C6.95887 8.04881 6.38794 8.64828 6.38794 9.39028C6.38794 10.1323 6.95887 10.7317 7.66553 10.7317H16.0777L13.1472 13.8087C12.6481 14.3328 12.6481 15.1837 13.1472 15.7078C13.6462 16.2318 14.4567 16.2318 14.9558 15.7078L20.0661 10.3419V10.3377ZM6.38794 2.68294C7.09461 2.68294 7.66553 2.08347 7.66553 1.34147C7.66553 0.599469 7.09461 0 6.38794 0H3.83277C1.71676 0 0 1.8026 0 4.02441V14.7562C0 16.978 1.71676 18.7806 3.83277 18.7806H6.38794C7.09461 18.7806 7.66553 18.1811 7.66553 17.4391C7.66553 16.6971 7.09461 16.0976 6.38794 16.0976H3.83277C3.1261 16.0976 2.55518 15.4982 2.55518 14.7562V4.02441C2.55518 3.28241 3.1261 2.68294 3.83277 2.68294H6.38794Z" fill="black" fill-opacity="0.5"/>
</svg>
