<svg width="18" height="18" viewBox="0 0 18 18" fill="none" xmlns="http://www.w3.org/2000/svg">
    <path fill-rule="evenodd" clip-rule="evenodd"
          d="M1.857 0C1.36449 0 0.892158 0.195648 0.543903 0.543903C0.195648 0.892158 0 1.36449 0 1.857V6.143C0 7.169 0.831 8 1.857 8H6.143C6.63551 8 7.10784 7.80435 7.4561 7.4561C7.80435 7.10784 8 6.63551 8 6.143V1.857C8 1.36449 7.80435 0.892158 7.4561 0.543903C7.10784 0.195648 6.63551 0 6.143 0H1.857ZM11.857 0C11.3645 0 10.8922 0.195648 10.5439 0.543903C10.1956 0.892158 10 1.36449 10 1.857V6.143C10 7.169 10.831 8 11.857 8H16.143C16.6355 8 17.1078 7.80435 17.4561 7.4561C17.8044 7.10784 18 6.63551 18 6.143V1.857C18 1.36449 17.8044 0.892158 17.4561 0.543903C17.1078 0.195648 16.6355 0 16.143 0H11.857ZM1.857 10C1.36449 10 0.892158 10.1956 0.543903 10.5439C0.195648 10.8922 0 11.3645 0 11.857V16.143C0 17.169 0.831 18 1.857 18H6.143C6.63551 18 7.10784 17.8044 7.4561 17.4561C7.80435 17.1078 8 16.6355 8 16.143V11.857C8 11.3645 7.80435 10.8922 7.4561 10.5439C7.10784 10.1956 6.63551 10 6.143 10H1.857ZM15 11C15 10.7348 14.8946 10.4804 14.7071 10.2929C14.5196 10.1054 14.2652 10 14 10C13.7348 10 13.4804 10.1054 13.2929 10.2929C13.1054 10.4804 13 10.7348 13 11V13H11C10.7348 13 10.4804 13.1054 10.2929 13.2929C10.1054 13.4804 10 13.7348 10 14C10 14.2652 10.1054 14.5196 10.2929 14.7071C10.4804 14.8946 10.7348 15 11 15H13V17C13 17.2652 13.1054 17.5196 13.2929 17.7071C13.4804 17.8946 13.7348 18 14 18C14.2652 18 14.5196 17.8946 14.7071 17.7071C14.8946 17.5196 15 17.2652 15 17V15H17C17.2652 15 17.5196 14.8946 17.7071 14.7071C17.8946 14.5196 18 14.2652 18 14C18 13.7348 17.8946 13.4804 17.7071 13.2929C17.5196 13.1054 17.2652 13 17 13H15V11Z"
          fill="currentColor"/>
</svg>
