<svg width="10" height="12" viewBox="0 0 10 12" fill="none" xmlns="http://www.w3.org/2000/svg">
    <path d="M3.21429 3.375V4.5H6.78571V3.375C6.78571 2.33906 5.98661 1.5 5 1.5C4.01339 1.5 3.21429 2.33906 3.21429 3.375ZM1.78571 4.5V3.375C1.78571 1.51172 3.22545 0 5 0C6.77455 0 8.21429 1.51172 8.21429 3.375V4.5H8.57143C9.35938 4.5 10 5.17266 10 6V10.5C10 11.3273 9.35938 12 8.57143 12H1.42857C0.640625 12 0 11.3273 0 10.5V6C0 5.17266 0.640625 4.5 1.42857 4.5H1.78571Z"
          fill="currentColor"/>
</svg>
