<svg width="37" height="38" viewBox="0 0 37 38" fill="none" xmlns="http://www.w3.org/2000/svg">
    <path d="M18.2683 0.00415444C20.3412 1.61423 21.8147 4.13344 21.8535 6.8258C21.8861 7.65671 21.3537 8.48931 21.7066 9.30019C22.7192 12.0928 23.2803 15.0196 23.9936 17.9003C25.1936 23.6859 26.5205 29.4432 27.6231 35.2518C27.7547 36.1376 28.1883 37.0646 27.813 37.9506C27.2521 38.0272 26.973 37.5044 26.8213 37.048C25.2891 31.7857 23.921 26.4672 22.4029 21.2012C21.4568 22.0061 20.5977 22.9591 19.4375 23.4571C16.6405 24.8207 13.2286 24.4036 10.7849 22.5222C10.8215 22.1143 11.2666 21.538 10.6599 21.3962C10.9886 21.2197 11.3497 21.0821 11.6007 20.7921C11.2883 20.6782 10.9717 20.5801 10.6585 20.4697C11.1222 20.4012 11.596 20.3921 12.055 20.2788C12.1216 19.8355 11.5201 19.7367 11.3089 19.4193C11.7631 19.4767 12.2149 19.5638 12.6739 19.5752C12.4905 19.2445 12.2796 18.9328 12.0913 18.6064C12.4824 18.6488 13.0594 19.2495 13.3454 18.7799C13.2608 18.3377 13.0337 17.9404 12.8981 17.5147C13.3197 17.777 13.6651 18.7484 14.2219 18.2417C14.1119 17.8248 13.9385 17.4287 13.8246 17.0126C14.1802 17.2988 14.3443 18.0912 14.905 17.8899C14.8602 17.5982 14.79 17.311 14.7373 17.0209C14.9719 17.2161 15.198 17.4222 15.4385 17.6095C15.6766 17.1592 15.4913 16.62 15.5657 16.1334C15.8171 16.5164 15.7421 17.2901 16.3411 17.273C16.8289 17.0521 16.5999 16.3349 16.7686 15.9001C16.9704 16.2944 16.794 17.3074 17.4693 17.0196C17.573 16.5976 17.6346 16.1661 17.7523 15.7478C17.8633 16.182 17.7908 16.6332 17.8042 17.0772C18.5253 17.1816 18.4676 16.2911 18.7047 15.8235C18.7176 16.2692 18.6963 16.7171 18.7275 17.164C19.3198 17.1998 19.3317 16.2372 19.7304 15.8829C19.7649 16.3589 19.0378 17.3548 19.8871 17.2592C20.0161 16.9933 20.1217 16.7173 20.2373 16.4458C20.2997 16.7971 20.3424 17.1525 20.4443 17.4954C21.0559 17.2851 21.1552 16.4139 20.831 15.8924C20.2785 13.8165 20.0015 11.6651 19.7829 9.52562C19.7652 9.05594 19.3543 8.78141 19.0777 8.4578C18.0041 7.34609 17.7344 5.64081 18.0711 4.15474C18.3851 2.7949 18.5779 1.3799 18.2683 0.00415444ZM19.5536 2.81505C19.57 3.41479 19.6409 4.01216 19.6682 4.61292C19.547 4.33477 19.4431 4.04799 19.3348 3.76381C18.8878 4.63251 19.1252 2.58497 18.6824 3.45859C18.3034 4.63659 18.1869 6.17031 19.0085 7.18616C19.22 6.79302 19.4398 7.25258 19.6421 7.40131C19.5418 6.87168 19.456 6.33649 19.4538 5.79535C19.6814 6.23245 19.8367 6.70309 20.0426 7.15141C20.495 6.71505 20.2132 4.8667 20.8189 6.0345C20.7913 4.82316 20.238 3.76579 19.5536 2.81505ZM21.1823 9.275C20.8093 9.29033 20.4407 9.36545 20.0829 9.46992C20.4988 10.6228 20.3604 11.939 20.85 13.0397C20.8919 12.9111 20.9757 12.6538 21.0164 12.523C21.1986 13.1086 21.8442 12.7089 22.2366 12.5797C21.947 11.4909 21.7151 10.1587 21.1823 9.275ZM22.3655 13.2946C21.8215 13.3568 21.135 13.513 21.0886 14.1867C21.7171 14.4212 23.1373 13.9191 22.3655 13.2946ZM22.5736 14.6809C22.1403 14.8238 21.4085 14.8356 21.19 15.1853C22.6531 20.5803 24.2485 25.9407 25.6544 31.3544C25.7018 31.7337 25.9515 32.0048 26.2175 32.2499C26.1862 32.7424 26.0018 33.3054 26.5178 33.6118C26.6077 34.528 26.8568 35.5039 27.4032 36.3647C26.1163 29.3386 24.5157 22.3702 22.9703 15.3977C22.8638 15.1764 22.8873 14.6365 22.5736 14.6809ZM19.4513 18.0024C19.1 17.9574 18.7457 17.9513 18.3931 17.974C18.8239 18.647 19.3878 19.3103 19.4144 20.1566C19.544 21.6202 18.3904 23.0745 16.9342 23.2097C15.6663 23.4843 14.3708 22.6306 13.9294 21.4407C13.6044 20.7412 13.8391 19.9555 13.7114 19.222C12.816 20.1576 11.8122 21.0945 11.3359 22.3296C14.583 24.982 19.8204 23.9963 22.1933 20.5856C22.1093 19.9809 21.9571 19.3599 21.6364 18.8393C20.9872 18.3969 20.225 18.119 19.4513 18.0024ZM17.6741 18.4807C17.2362 18.6544 16.8373 18.9331 16.5037 19.2671C16.2165 20.1861 17.7827 20.2032 17.8984 19.4026C17.955 19.0663 18.2991 18.2758 17.6741 18.4807Z"
          fill="currentColor"/>
    <path d="M24.5892 5.79543C28.8691 6.48483 33.3174 8.40252 35.7133 12.2217C36.4024 13.3078 36.8899 14.9656 35.8473 16.0055C34.8802 17.0694 33.3709 17.1734 32.0406 17.0967C30.2196 17.0775 28.0036 17.3436 26.9605 19.0808C26.3447 19.995 27.3732 20.9548 28.2342 21.1005C29.6606 21.6395 31.3429 20.9941 32.6512 21.8833C33.3408 22.3554 33.3322 23.3264 33.043 24.0371C32.1205 26.5342 30.3249 28.5971 28.3313 30.2931C28.0313 30.5227 27.7329 30.8226 27.3354 30.839C27.1057 30.3957 27.1944 29.877 27.6179 29.5898C29.5822 27.9822 31.4739 26.1795 32.6614 23.8895C33.031 23.2684 32.8776 22.2067 32.0829 22.0429C30.6228 21.5742 28.9958 21.9717 27.5744 21.3168C26.4607 20.8974 25.6383 19.4674 26.2308 18.3202C26.9222 17.0123 28.4083 16.4938 29.7485 16.1933C31.5757 15.7927 33.4719 16.2403 35.2849 15.7886C36.3897 15.2814 36.0716 13.7427 35.6194 12.8712C33.6951 9.39204 29.906 7.3996 26.1798 6.51457C24.9896 6.13708 23.7163 6.26462 22.5137 5.98209C22.5934 5.32303 23.9872 5.83069 24.5892 5.79543Z"
          fill="currentColor"/>
    <path d="M24.6997 6.75304C28.1522 7.36627 31.68 8.68577 34.0273 11.4278C34.7534 12.2366 35.4412 13.279 35.2366 14.4319C34.8705 15.207 33.9163 15.3955 33.1458 15.3988C31.357 15.392 29.4921 15.4045 27.825 16.1674C26.8111 16.6064 25.7712 17.2955 25.4209 18.415C25.0329 19.9743 25.9513 21.8666 27.5655 22.2122C28.8426 22.613 30.2181 22.2293 31.4959 22.5717C32.3328 22.9395 31.8376 23.9598 31.5749 24.5717C30.6247 26.3375 29.1883 27.8181 27.5701 28.9684C27.3343 29.2227 26.8792 29.0573 26.8767 28.7051C25.7009 23.0583 24.6361 17.3731 23.184 11.7978C24.2549 10.9375 25.0037 9.40871 24.2359 8.10865C24.0183 7.45312 23.0091 7.31123 22.9847 6.6375C23.5586 6.60982 24.1314 6.67638 24.6997 6.75304ZM28.0242 8.99142C26.9641 9.05326 25.9281 9.69989 25.4187 10.6483C24.6052 12.0293 25.1273 14.0724 26.5677 14.7816C28.2035 15.6867 30.5365 14.5598 30.8856 12.6934C31.4803 10.8984 29.8624 8.8905 28.0242 8.99142ZM30.8217 22.9807C30.161 24.5841 28.9103 25.761 27.7171 26.9457C29.2448 26.0982 30.4937 24.5806 30.9472 22.8669L30.8217 22.9807ZM30.0836 22.9814C29.6603 23.5181 29.3968 24.1676 29.0905 24.7754C29.6581 24.4512 30.2709 23.1242 30.0836 22.9814ZM31.4635 23.3322C30.7082 24.7118 29.7517 25.9657 28.6471 27.091C30.0345 26.2455 31.078 24.7712 31.585 23.2268L31.4635 23.3322ZM29.3435 22.9759C28.8979 23.5123 28.5518 24.1227 28.1945 24.7187C28.8248 24.4528 29.5241 23.1433 29.3435 22.9759ZM28.5925 22.9485C28.0604 23.4599 27.6561 24.0925 27.1532 24.6343C27.8867 24.4907 28.7038 23.1938 28.5925 22.9485Z"
          fill="currentColor"/>
    <path d="M22.8229 7.3596C23.8697 7.7157 24.3772 8.90253 24.164 9.96242C23.8352 9.29786 23.5691 8.55938 22.9239 8.13701C22.6457 8.00009 22.316 7.38065 22.8229 7.3596Z"
          fill="currentColor"/>
    <path d="M28.2767 9.40497C30.047 9.35579 31.4041 11.9685 30.0406 13.2324C30.4023 11.9591 29.7564 10.3779 28.389 10.1193C27.435 9.77857 26.5522 10.3888 25.858 10.9909C26.1345 9.93097 27.2565 9.35275 28.2767 9.40497Z"
          fill="currentColor"/>
    <path d="M16.7716 6.51496C17.4073 6.36777 16.8361 6.93482 16.5234 6.92663C10.0796 8.40176 3.94784 12.788 1.55477 19.1947C1.15954 20.614 0.594169 22.0634 0.730564 23.5572C1.12642 22.3232 1.10172 20.9898 1.6041 19.7825C3.98367 13.1132 10.3612 8.37325 17.1684 7.27334C17.7664 7.19732 17.9112 7.99213 18.2664 8.34246C19.0019 9.09523 18.0063 10.1477 18.5303 11.0082C19.0656 12.1401 20.1734 13.4784 19.3816 14.7574C15.4087 14.1881 11.214 16.2337 9.28496 19.8447C8.89967 20.6845 8.15947 21.7015 8.60223 22.6291C10.6934 24.8526 13.8373 26.3811 16.9257 25.7798C18.6593 25.4297 20.3715 24.6864 21.6043 23.3611C21.8203 23.0277 22.4284 23.1434 22.4582 23.554C23.0835 25.8724 23.7642 28.1792 24.3671 30.5048C24.5446 30.9342 24.0659 31.1631 23.7788 31.3583C20.3628 33.4047 16.3154 33.9475 12.4259 34.0337C15.6993 34.4666 19.0585 33.7659 22.1418 32.6207C23.1163 32.294 24.0004 31.637 25.0469 31.5772C25.3317 32.2526 24.4594 32.5386 24.0338 32.8404C18.5141 36.0203 11.2915 36.5081 5.68093 33.4133C1.54587 31.1751 -0.601273 25.9824 0.555345 21.3877C1.61811 16.0723 5.42753 11.5911 10.0823 9.05263C12.1373 7.82285 14.4136 6.88674 16.7716 6.51496ZM15.4513 8.64659C14.2184 8.48444 12.9678 9.47993 12.8832 10.7482C12.727 12.0407 13.8942 13.3381 15.1994 13.1681C16.5058 13.1534 17.5608 11.8031 17.3734 10.5206C17.3082 9.52594 16.3987 8.73412 15.4513 8.64659ZM9.86809 11.8964C8.61368 11.5849 7.32726 12.6237 7.09052 13.8549C6.96312 14.9076 7.51506 16.1857 8.63175 16.3923C9.84711 16.8635 11.2808 15.9568 11.5274 14.6885C11.9563 13.4842 11.117 12.0686 9.86809 11.8964ZM5.65846 17.3288C4.08215 17.1616 2.65846 18.81 3.09735 20.364C3.5115 22.1911 6.32921 22.4264 7.1999 20.832C8.17321 19.5014 7.27235 17.4531 5.65846 17.3288ZM5.86998 23.4657C4.5951 23.2375 3.27508 24.1652 3.01547 25.4471C2.52797 27.0439 4.04408 28.8545 5.67926 28.5725C6.86676 28.4314 7.85831 27.3665 7.93153 26.1614C8.05559 24.9056 7.10832 23.6425 5.86998 23.4657ZM17.2965 27.463C16.0273 27.2344 14.6258 28.1252 14.4282 29.4539C14.0106 30.7482 14.9555 32.2148 16.2552 32.4477C17.8829 32.9727 19.7072 31.2407 19.3477 29.5643C19.2208 28.5078 18.3196 27.6294 17.2965 27.463ZM10.0895 27.2178C8.43016 27.3742 7.26914 29.4332 8.20946 30.8891C9.06345 32.6394 11.9287 32.4886 12.6235 30.6468C13.4426 28.9668 11.8551 27.0124 10.0895 27.2178Z"
          fill="currentColor"/>
    <path d="M15.1799 8.9292C16.632 8.82309 17.6068 10.5604 16.9446 11.8288C16.8116 10.9899 16.5687 9.97038 15.6292 9.72811C14.486 9.32161 13.3624 10.2604 13.2589 11.4253C12.7417 10.2264 13.9583 8.85702 15.1799 8.9292Z"
          fill="currentColor"/>
    <path d="M9.4761 12.1146C10.3939 12.0619 11.1897 12.7779 11.3262 13.6801C10.5026 12.3934 8.36878 12.332 7.80192 13.8981C7.24814 14.8592 8.83904 15.0833 8.72956 16.0273C6.43854 15.6553 7.34467 11.9328 9.4761 12.1146Z"
          fill="currentColor"/>
    <path d="M5.21438 17.6162C6.25325 17.543 7.36648 18.3119 7.33064 19.4401C6.53592 17.7189 4.17011 18.0224 3.29539 19.5136C3.49289 18.5819 4.22892 17.6847 5.21438 17.6162Z"
          fill="currentColor"/>
    <path d="M3.39239 19.8609C4.07881 20.06 4.52147 20.6889 4.6826 21.3671C3.92252 21.3109 3.31375 20.6412 3.39239 19.8609Z"
          fill="currentColor"/>
    <path d="M5.4434 23.7086C6.73572 23.6353 7.77323 24.9093 7.67935 26.1637C7.57736 27.5388 6.0439 28.6929 4.72991 28.1934C3.33402 27.8118 2.662 25.8135 3.6309 24.6802C4.04011 24.0848 4.72967 23.7158 5.4434 23.7086ZM5.59782 24.4814C4.62124 24.4125 3.40158 25.1744 3.60764 26.2899C3.79189 28.1197 6.86666 28.1328 7.24929 26.4057C7.5235 25.3754 6.58821 24.4501 5.59782 24.4814Z"
          fill="currentColor"/>
    <path d="M16.8482 27.6963C18.041 27.6398 19.0287 28.6756 19.1114 29.8412C19.1603 31.0148 18.2215 32.126 17.0671 32.2551C15.8728 32.47 14.7074 31.4509 14.5876 30.2639C14.3649 28.9531 15.5739 27.7026 16.8482 27.6963ZM16.7397 28.8107C16.1785 28.8607 15.5468 28.9579 15.1213 29.3637C14.7058 30.3372 15.3834 31.6055 16.4423 31.7494C17.6431 32.1222 19.0779 30.7867 18.5832 29.5523C18.1752 28.9818 17.3981 28.8359 16.7397 28.8107Z"
          fill="currentColor"/>
    <path d="M10.3814 27.4774C11.656 27.4561 12.731 28.6948 12.5715 29.9713C12.3817 31.132 11.2079 32.0214 10.0518 31.8647C9.04628 31.7786 8.30234 30.8554 8.12581 29.9009C7.97128 28.6348 9.1609 27.4774 10.3814 27.4774ZM10.4456 28.6287C9.77498 28.621 9.09682 28.8362 8.55772 29.2417C8.30531 30.448 9.4661 31.7626 10.695 31.4115C11.6131 31.2814 12.1561 30.3533 12.1791 29.4749C11.8931 28.8105 11.0793 28.6907 10.4456 28.6287Z"
          fill="currentColor"/>
</svg>
