<svg width="12" height="12" viewBox="0 0 12 12" fill="none" xmlns="http://www.w3.org/2000/svg">
    <path d="M9.75048 4.87429C9.75048 5.94991 9.40124 6.94351 8.81293 7.74965L11.7803 10.7187C12.0732 11.0117 12.0732 11.4874 11.7803 11.7803C11.4873 12.0732 11.0115 12.0732 10.7185 11.7803L7.75116 8.81121C6.94487 9.40175 5.95107 9.74857 4.87524 9.74857C2.18214 9.74857 0 7.56686 0 4.87429C0 2.18171 2.18214 0 4.87524 0C7.56834 0 9.75048 2.18171 9.75048 4.87429ZM4.87524 8.24879C5.31847 8.24879 5.75736 8.16151 6.16686 7.99192C6.57635 7.82234 6.94843 7.57377 7.26184 7.26042C7.57525 6.94707 7.82387 6.57507 7.99348 6.16565C8.1631 5.75624 8.2504 5.31743 8.2504 4.87429C8.2504 4.43114 8.1631 3.99233 7.99348 3.58292C7.82387 3.1735 7.57525 2.8015 7.26184 2.48815C6.94843 2.1748 6.57635 1.92623 6.16686 1.75665C5.75736 1.58706 5.31847 1.49978 4.87524 1.49978C4.43201 1.49978 3.99311 1.58706 3.58362 1.75665C3.17412 1.92623 2.80205 2.1748 2.48864 2.48815C2.17522 2.8015 1.92661 3.1735 1.75699 3.58292C1.58737 3.99233 1.50007 4.43114 1.50007 4.87429C1.50007 5.31743 1.58737 5.75624 1.75699 6.16565C1.92661 6.57507 2.17522 6.94707 2.48864 7.26042C2.80205 7.57377 3.17412 7.82234 3.58362 7.99192C3.99311 8.16151 4.43201 8.24879 4.87524 8.24879Z"
          fill="currentColor"/>
</svg>
