<svg width="24" height="32" viewBox="0 0 24 32" fill="none" xmlns="http://www.w3.org/2000/svg">
    <path d="M11.2937 0.290625C11.6812 -0.096875 12.3188 -0.096875 12.7063 0.290625L17.7062 5.29062C17.8625 5.44687 17.9625 5.65312 17.9937 5.87187L20.5063 25.9969H3.49375L6.00625 5.87187C6.03125 5.65312 6.13125 5.44687 6.29375 5.29062L11.2937 0.290625ZM9.5 16.9969C8.66875 16.9969 8 17.6656 8 18.4969C8 19.3281 8.66875 19.9969 9.5 19.9969H14.5C15.3313 19.9969 16 19.3281 16 18.4969C16 17.6656 15.3313 16.9969 14.5 16.9969H9.5ZM2 27.9969H22C23.1063 27.9969 24 28.8906 24 29.9969C24 31.1031 23.1063 31.9969 22 31.9969H2C0.89375 31.9969 0 31.1031 0 29.9969C0 28.8906 0.89375 27.9969 2 27.9969Z"
          fill="currentColor"/>
</svg>
