<svg width="18" height="15" viewBox="0 0 18 15" fill="none" xmlns="http://www.w3.org/2000/svg">
    <path d="M15.75 4.6875C16.3467 4.6875 16.919 4.44057 17.341 4.00103C17.7629 3.56149 18 2.96535 18 2.34375C18 1.72215 17.7629 1.12601 17.341 0.686468C16.919 0.24693 16.3467 0 15.75 0C15.1533 0 14.581 0.24693 14.159 0.686468C13.7371 1.12601 13.5 1.72215 13.5 2.34375C13.5 2.96535 13.7371 3.56149 14.159 4.00103C14.581 4.44057 15.1533 4.6875 15.75 4.6875ZM1.57219 15H10.7184H12.8278H16.2816C17.2322 15 18 14.1973 18 13.21C18 12.8818 17.9128 12.5596 17.7497 12.2783L14.0372 5.94141C13.9219 5.74512 13.7194 5.625 13.5 5.625C13.2806 5.625 13.0781 5.74512 12.9628 5.93848L11.6072 8.25293L8.06625 2.37305C7.88062 2.0625 7.55156 1.875 7.2 1.875C6.84844 1.875 6.52219 2.0625 6.33375 2.37305L0.241875 12.4922C0.084375 12.7529 0 13.0547 0 13.3623C0 14.2676 0.703125 15 1.57219 15Z"
          fill="currentColor"/>
</svg>
