<svg width="24" height="19" viewBox="0 0 24 19" fill="none" xmlns="http://www.w3.org/2000/svg">
    <path d="M6.66667 0C5.19583 0 4 1.21719 4 2.71429V12.2143C4 13.7114 5.19583 14.9286 6.66667 14.9286H21.3333C22.8042 14.9286 24 13.7114 24 12.2143V2.71429C24 1.21719 22.8042 0 21.3333 0H6.66667ZM16.5 4.52522L20.5 10.6324C20.7042 10.9462 20.725 11.3449 20.55 11.6757C20.375 12.0065 20.0375 12.2143 19.6667 12.2143H13.6667H11.6667H8.33333C7.95 12.2143 7.6 11.9895 7.43333 11.6375C7.26667 11.2855 7.3125 10.8656 7.55417 10.5603L10.2208 7.16741C10.4125 6.92567 10.6958 6.78571 11 6.78571C11.3042 6.78571 11.5917 6.92567 11.7792 7.16741L12.5 8.08348L14.8333 4.52098C15.0208 4.24107 15.3333 4.07143 15.6667 4.07143C16 4.07143 16.3125 4.24107 16.5 4.52522ZM8 4.07143C8 3.71149 8.14048 3.3663 8.39052 3.11178C8.64057 2.85727 8.97971 2.71429 9.33333 2.71429C9.68696 2.71429 10.0261 2.85727 10.2761 3.11178C10.5262 3.3663 10.6667 3.71149 10.6667 4.07143C10.6667 4.43137 10.5262 4.77656 10.2761 5.03107C10.0261 5.28559 9.68696 5.42857 9.33333 5.42857C8.97971 5.42857 8.64057 5.28559 8.39052 5.03107C8.14048 4.77656 8 4.43137 8 4.07143ZM2 3.73214C2 3.16808 1.55417 2.71429 1 2.71429C0.445833 2.71429 0 3.16808 0 3.73214V13.2321C0 16.4172 2.5375 19 5.66667 19H19C19.5542 19 20 18.5462 20 17.9821C20 17.4181 19.5542 16.9643 19 16.9643H5.66667C3.64167 16.9643 2 15.2933 2 13.2321V3.73214Z"
          fill="currentColor" />
</svg>
