<svg width="18" height="18" viewBox="0 0 18 18" fill="none" xmlns="http://www.w3.org/2000/svg">
    <path d="M10.3846 1.38462C10.3846 0.61875 9.76587 0 9 0C8.23413 0 7.61538 0.61875 7.61538 1.38462V7.61538H1.38462C0.61875 7.61538 0 8.23413 0 9C0 9.76587 0.61875 10.3846 1.38462 10.3846H7.61538V16.6154C7.61538 17.3813 8.23413 18 9 18C9.76587 18 10.3846 17.3813 10.3846 16.6154V10.3846H16.6154C17.3813 10.3846 18 9.76587 18 9C18 8.23413 17.3813 7.61538 16.6154 7.61538H10.3846V1.38462Z"
          fill="currentColor"/>
</svg>
