<svg width="12" height="11" viewBox="0 0 12 11" fill="none" xmlns="http://www.w3.org/2000/svg">
    <path d="M2.22796 4.18969C2.4205 3.65439 2.73307 3.15101 3.17316 2.7213C4.73599 1.18662 7.26901 1.18662 8.83184 2.7213L9.25943 3.14365H8.40175C7.95916 3.14365 7.60158 3.49478 7.60158 3.9294C7.60158 4.36403 7.95916 4.71516 8.40175 4.71516H11.1898H11.1998C11.6424 4.71516 12 4.36403 12 3.9294V1.17925C12 0.744629 11.6424 0.393493 11.1998 0.393493C10.7572 0.393493 10.3997 0.744629 10.3997 1.17925V2.04358L9.96208 1.61142C7.77412 -0.537139 4.22838 -0.537139 2.04043 1.61142C1.4303 2.21056 0.990206 2.91529 0.72015 3.66912C0.572619 4.07919 0.792665 4.52609 1.20775 4.67096C1.62284 4.81584 2.08043 4.59975 2.22796 4.19214V4.18969ZM0.57512 6.3186C0.450094 6.35543 0.330069 6.42173 0.232548 6.51995C0.132528 6.61817 0.0650136 6.73603 0.0300063 6.86372C0.0225047 6.89319 0.0150031 6.92511 0.0100021 6.95703C0.00250051 6.99877 0 7.04052 0 7.08226V9.82259C0 10.2572 0.357574 10.6083 0.800167 10.6083C1.24276 10.6083 1.60033 10.2572 1.60033 9.82259V8.96071L2.04043 9.39042C4.22838 11.5365 7.77412 11.5365 9.95957 9.39042C10.5697 8.79128 11.0123 8.08656 11.2824 7.33518C11.4299 6.92511 11.2098 6.47821 10.7947 6.33333C10.3797 6.18846 9.92207 6.40454 9.77454 6.81215C9.582 7.34745 9.26943 7.85083 8.82934 8.28054C7.26651 9.81522 4.73349 9.81522 3.17066 8.28054L3.16816 8.27808L2.74057 7.8582H3.60075C4.04334 7.8582 4.40092 7.50706 4.40092 7.07244C4.40092 6.63781 4.04334 6.28668 3.60075 6.28668H0.810169C0.770161 6.28668 0.730152 6.28913 0.690144 6.29405C0.650135 6.29896 0.612628 6.30632 0.57512 6.3186Z"
          fill="currentColor"/>
</svg>
