<svg width="16" height="16" viewBox="0 0 16 16" fill="none" xmlns="http://www.w3.org/2000/svg">
<path d="M12.6667 6.83333V13.5417C12.6667 13.7332 12.6289 13.9228 12.5557 14.0997C12.4824 14.2767 12.3749 14.4374 12.2395 14.5729C12.1041 14.7083 11.9433 14.8157 11.7664 14.889C11.5895 14.9623 11.3998 15 11.2083 15H2.45833C2.07156 15 1.70063 14.8464 1.42714 14.5729C1.15365 14.2994 1 13.9284 1 13.5417V4.79167C1 4.40489 1.15365 4.03396 1.42714 3.76047C1.70063 3.48698 2.07156 3.33333 2.45833 3.33333H8.56438M10.9167 1H15V5.08333M6.83333 9.16667L14.7083 1.29167" stroke="#C98412" stroke-linecap="round" stroke-linejoin="round"/>
</svg>
