<svg width="8" height="9" viewBox="0 0 8 9" fill="none" xmlns="http://www.w3.org/2000/svg">
    <path d="M2.41429 0.311133C2.51071 0.119531 2.70893 0 2.925 0H5.075C5.29107 0 5.48929 0.119531 5.58571 0.311133L5.71429 0.5625H7.42857C7.74464 0.5625 8 0.813867 8 1.125C8 1.43613 7.74464 1.6875 7.42857 1.6875H0.571429C0.255357 1.6875 0 1.43613 0 1.125C0 0.813867 0.255357 0.5625 0.571429 0.5625H2.28571L2.41429 0.311133ZM0.571429 2.25H7.42857V7.875C7.42857 8.49551 6.91607 9 6.28571 9H1.71429C1.08393 9 0.571429 8.49551 0.571429 7.875V2.25ZM2.28571 3.375C2.12857 3.375 2 3.50156 2 3.65625V7.59375C2 7.74844 2.12857 7.875 2.28571 7.875C2.44286 7.875 2.57143 7.74844 2.57143 7.59375V3.65625C2.57143 3.50156 2.44286 3.375 2.28571 3.375ZM4 3.375C3.84286 3.375 3.71429 3.50156 3.71429 3.65625V7.59375C3.71429 7.74844 3.84286 7.875 4 7.875C4.15714 7.875 4.28571 7.74844 4.28571 7.59375V3.65625C4.28571 3.50156 4.15714 3.375 4 3.375ZM5.71429 3.375C5.55714 3.375 5.42857 3.50156 5.42857 3.65625V7.59375C5.42857 7.74844 5.55714 7.875 5.71429 7.875C5.87143 7.875 6 7.74844 6 7.59375V3.65625C6 3.50156 5.87143 3.375 5.71429 3.375Z"
          fill="currentColor"/>
</svg>
