<svg width="20" height="20" viewBox="0 0 20 20" fill="none" xmlns="http://www.w3.org/2000/svg">
    <path d="M10 11.25C11.4918 11.25 12.9226 10.6574 13.9775 9.60248C15.0324 8.54758 15.625 7.11684 15.625 5.625C15.625 4.13316 15.0324 2.70242 13.9775 1.64752C12.9226 0.592632 11.4918 0 10 0C8.50816 0 7.07742 0.592632 6.02252 1.64752C4.96763 2.70242 4.375 4.13316 4.375 5.625C4.375 7.11684 4.96763 8.54758 6.02252 9.60248C7.07742 10.6574 8.50816 11.25 10 11.25ZM6.30078 12.5C2.82031 12.5 0 15.3203 0 18.8008C0 19.4648 0.539063 20 1.19922 20H18.8008C19.4648 20 20 19.4609 20 18.8008C20 15.3203 17.1797 12.5 13.6992 12.5H6.30078Z"
          fill="currentColor"/>
</svg>
